# xmcd
#
# Track frame offsets:
#	150
#	11940
#	26736
#	41037
#	57437
#	70033
#	86529
#	100543
#	117352
#	130442
#
# Disc length: 1878 seconds
#
# Revision: 0
# Processed by: cddbd v1.4PL0 Copyright (c) Steve Scherf et al.
# Submitted via: dBpowerAMP V4.0
#
DISCID=8607540a
DTITLE=Smith Garrett Band - Songs By The Smith Garrett Band
DYEAR=2001
DGENRE=Country
TTITLE0=Country Time
TTITLE1=The Birds
TTITLE2=Floodwater
TTITLE3=Poor Cowboy
TTITLE4=What Do You Want From Me
TTITLE5=Take Me Lord I'm Ready To Leave Now
TTITLE6=Bring Your Sweet Lovin' Back Home
TTITLE7=You Can Drift Through This World
TTITLE8=Sick As A Dog
TTITLE9=So Long
EXTD=
EXTT0=
EXTT1=
EXTT2=
EXTT3=
EXTT4=
EXTT5=
EXTT6=
EXTT7=
EXTT8=
EXTT9=
PLAYORDER=
